<svg width="30" height="30" viewBox="0 0 30 30" fill="none" xmlns="http://www.w3.org/2000/svg">
<g clip-path="url(#clip0_1388_591)">
<path d="M15.0003 29.0215C22.7442 29.0215 29.022 22.7438 29.022 14.9998C29.022 7.25577 22.7442 0.978027 15.0003 0.978027C7.25626 0.978027 0.978516 7.25577 0.978516 14.9998C0.978516 22.7438 7.25626 29.0215 15.0003 29.0215Z" fill="#F95C3B" stroke="#F95C3B" stroke-width="1.5"/>
<path d="M21.3189 11.023C21.4233 10.9223 21.5065 10.8018 21.5638 10.6686C21.6212 10.5354 21.6513 10.3921 21.6526 10.2471C21.6539 10.1021 21.6264 9.95825 21.5716 9.824C21.5167 9.68975 21.4357 9.56777 21.3332 9.46518C21.2306 9.36258 21.1088 9.28144 20.9746 9.22646C20.8404 9.17148 20.6965 9.14378 20.5516 9.14497C20.4066 9.14617 20.2632 9.17622 20.1299 9.2334C19.9966 9.29057 19.8761 9.37371 19.7752 9.47798L15.398 13.8539L11.022 9.47798C10.9221 9.37067 10.8015 9.28461 10.6675 9.22492C10.5335 9.16522 10.3889 9.13312 10.2423 9.13054C10.0956 9.12796 9.94998 9.15493 9.81398 9.20986C9.67799 9.26478 9.55446 9.34654 9.45075 9.45026C9.34703 9.55397 9.26527 9.67751 9.21035 9.8135C9.15542 9.94949 9.12845 10.0951 9.13103 10.2418C9.13361 10.3884 9.16571 10.5331 9.22541 10.667C9.2851 10.801 9.37116 10.9216 9.47847 11.0216L13.8514 15.3989L9.47556 19.7748C9.28263 19.9819 9.17761 20.2557 9.1826 20.5386C9.1876 20.8216 9.30221 21.0915 9.50232 21.2916C9.70242 21.4917 9.97239 21.6063 10.2553 21.6114C10.5383 21.6164 10.8121 21.5114 11.0191 21.3185L15.398 16.9425L19.7738 21.3199C19.9809 21.5128 20.2547 21.6178 20.5376 21.6128C20.8206 21.6078 21.0906 21.4932 21.2906 21.2932C21.4907 21.0929 21.6054 20.8231 21.6103 20.5402C21.6154 20.2571 21.5103 19.9833 21.3174 19.7763L16.9444 15.3989L21.3189 11.023Z" fill="white"/>
</g>
<defs>
<clipPath id="clip0_1388_591">
<rect width="30" height="30" fill="white"/>
</clipPath>
</defs>
</svg>
