<svg width="445" height="91" viewBox="0 0 445 91" fill="none" xmlns="http://www.w3.org/2000/svg">
<path d="M316.613 28.3055H299.744V71.5048H293.547V28.3055H276.678V22.8198H316.613V28.3055ZM333.887 22.8198H339.12L359.088 71.5048H352.478L346.694 57.2422H326.175L320.461 71.5048H313.851L333.887 22.8198ZM345.317 52.4422L336.504 29.9511L327.415 52.4422H345.317ZM365.612 71.5048V22.8198H371.809V66.0192H399.076V71.5048H365.612ZM405.822 71.5048V22.8884H412.019V49.768L437.22 22.8198H443.898L424.275 44.2824L445 71.5048H438.046L420.35 47.9852L412.019 56.625V71.5048H405.822Z" fill="white"/>
<path d="M0 45.5C0 20.3708 20.2087 0 45.1378 0H283.229C283.344 0 283.455 0.0134945 283.565 0.0402296C285.063 0.405235 284.986 2.83562 283.511 3.27625C242.901 15.3901 242.772 75.4239 283.492 87.6149C285.022 88.0725 285.134 90.5188 283.596 90.9454C283.465 90.9819 283.331 91 283.196 91H45.1378C20.2087 91 0 70.6292 0 45.5Z" fill="#F95C3B"/>
<path d="M85.1096 58.1001C85.1096 60.6143 84.467 62.8086 83.1817 64.6828C81.8964 66.5571 80.1521 68.0199 77.9488 69.0713C75.7913 70.1227 73.4044 70.6485 70.7879 70.6485H47.584V21.9635H71.8896C74.1847 21.9635 76.1585 22.5806 77.811 23.8149C79.5095 25.0034 80.7947 26.5577 81.6669 28.4776C82.5849 30.3519 83.044 32.3176 83.044 34.3747C83.044 36.7518 82.4243 38.9918 81.1849 41.0946C79.9914 43.1517 78.2701 44.6831 76.0208 45.6888C78.8209 46.5117 81.0243 48.0431 82.6309 50.283C84.2834 52.4773 85.1096 55.083 85.1096 58.1001ZM78.8439 57.0029C78.8439 55.4944 78.4996 54.1001 77.811 52.8201C77.1684 51.5402 76.2733 50.5116 75.1257 49.7345C74.0241 48.9573 72.7388 48.5688 71.2699 48.5688H53.7809V65.3H70.7879C72.3027 65.3 73.6568 64.9114 74.8503 64.1343C76.0897 63.3571 77.0536 62.3514 77.7422 61.1172C78.4766 59.8372 78.8439 58.4658 78.8439 57.0029ZM53.7809 27.312V43.5631H69.342C70.8109 43.5631 72.0961 43.1974 73.1978 42.466C74.3454 41.7346 75.2405 40.7518 75.8831 39.5175C76.5717 38.2832 76.9159 36.9347 76.9159 35.4718C76.9159 33.9176 76.5946 32.5462 75.952 31.3576C75.3552 30.1233 74.506 29.1405 73.4044 28.4091C72.3486 27.6777 71.1322 27.312 69.7551 27.312H53.7809ZM113.608 70.9913C110.166 70.9913 107.044 70.3056 104.244 68.9342C101.444 67.5628 99.0111 65.7114 96.9455 63.38C94.9257 61.0029 93.365 58.3515 92.2634 55.4258C91.1617 52.4544 90.6109 49.4145 90.6109 46.306C90.6109 43.0603 91.1846 39.9746 92.3322 37.0489C93.5257 34.0776 95.1553 31.449 97.2209 29.1634C99.3324 26.832 101.788 25.0034 104.588 23.6777C107.388 22.3063 110.441 21.6206 113.746 21.6206C117.189 21.6206 120.31 22.3292 123.11 23.7463C125.91 25.1634 128.32 27.0605 130.34 29.4376C132.36 31.8147 133.92 34.4661 135.022 37.3918C136.124 40.3175 136.674 43.3117 136.674 46.3745C136.674 49.6202 136.101 52.7287 134.953 55.7001C133.805 58.6258 132.176 61.2543 130.065 63.5857C127.999 65.8714 125.566 67.6771 122.766 69.0028C119.966 70.3285 116.913 70.9913 113.608 70.9913ZM96.8766 46.306C96.8766 48.7745 97.2668 51.1745 98.0471 53.5058C98.8734 55.7915 100.021 57.8258 101.49 59.6086C102.959 61.3914 104.726 62.8086 106.792 63.86C108.857 64.9114 111.152 65.4371 113.677 65.4371C116.294 65.4371 118.635 64.8885 120.7 63.7914C122.766 62.6943 124.51 61.2314 125.933 59.4029C127.402 57.5744 128.504 55.5172 129.238 53.2316C130.019 50.9459 130.409 48.6373 130.409 46.306C130.409 43.8374 129.996 41.4603 129.169 39.1746C128.389 36.889 127.241 34.8547 125.727 33.0719C124.258 31.2433 122.49 29.8262 120.425 28.8205C118.405 27.7691 116.156 27.2434 113.677 27.2434C111.061 27.2434 108.72 27.7919 106.654 28.8891C104.588 29.9405 102.821 31.3805 101.352 33.209C99.9292 35.0376 98.8275 37.0947 98.0471 39.3803C97.2668 41.6203 96.8766 43.9288 96.8766 46.306ZM165.115 70.9913C161.672 70.9913 158.551 70.3056 155.75 68.9342C152.95 67.5628 150.517 65.7114 148.452 63.38C146.432 61.0029 144.871 58.3515 143.77 55.4258C142.668 52.4544 142.117 49.4145 142.117 46.306C142.117 43.0603 142.691 39.9746 143.839 37.0489C145.032 34.0776 146.662 31.449 148.727 29.1634C150.839 26.832 153.295 25.0034 156.095 23.6777C158.895 22.3063 161.947 21.6206 165.252 21.6206C168.695 21.6206 171.816 22.3292 174.617 23.7463C177.417 25.1634 179.826 27.0605 181.846 29.4376C183.866 31.8147 185.427 34.4661 186.528 37.3918C187.63 40.3175 188.181 43.3117 188.181 46.3745C188.181 49.6202 187.607 52.7287 186.459 55.7001C185.312 58.6258 183.682 61.2543 181.571 63.5857C179.505 65.8714 177.072 67.6771 174.272 69.0028C171.472 70.3285 168.42 70.9913 165.115 70.9913ZM148.383 46.306C148.383 48.7745 148.773 51.1745 149.554 53.5058C150.38 55.7915 151.527 57.8258 152.996 59.6086C154.465 61.3914 156.232 62.8086 158.298 63.86C160.364 64.9114 162.659 65.4371 165.183 65.4371C167.8 65.4371 170.141 64.8885 172.207 63.7914C174.272 62.6943 176.017 61.2314 177.44 59.4029C178.908 57.5744 180.01 55.5172 180.745 53.2316C181.525 50.9459 181.915 48.6373 181.915 46.306C181.915 43.8374 181.502 41.4603 180.676 39.1746C179.895 36.889 178.748 34.8547 177.233 33.0719C175.764 31.2433 173.997 29.8262 171.931 28.8205C169.911 27.7691 167.662 27.2434 165.183 27.2434C162.567 27.2434 160.226 27.7919 158.16 28.8891C156.095 29.9405 154.327 31.3805 152.859 33.209C151.436 35.0376 150.334 37.0947 149.554 39.3803C148.773 41.6203 148.383 43.9288 148.383 46.306ZM196.791 70.6485V22.032H202.988V48.9116L228.189 21.9635H234.868L215.244 43.426L235.97 70.6485H229.015L211.32 47.1288L202.988 55.7687V70.6485H196.791Z" fill="white"/>
</svg>
