<svg width="120" height="106" viewBox="0 0 120 106" fill="none" xmlns="http://www.w3.org/2000/svg">
<path d="M0 28.3061C0 12.673 8.48362 0 18.9489 0H118.9C118.948 0 118.994 0.00839508 119.041 0.0250274C119.67 0.252102 119.637 1.76407 119.018 2.0382C101.97 9.57439 101.916 46.9222 119.01 54.5064C119.652 54.791 119.7 56.3129 119.054 56.5783C118.999 56.601 118.943 56.6123 118.886 56.6123H18.9489C8.48362 56.6123 0 43.9393 0 28.3061Z" fill="#F95C3B"/>
<path d="M35.7279 36.1445C35.7279 37.7087 35.4581 39.0738 34.9186 40.2398C34.379 41.4058 33.6467 42.3158 32.7218 42.9699C31.8161 43.624 30.814 43.951 29.7156 43.951H19.9746V13.6635H30.1781C31.1416 13.6635 31.9702 14.0474 32.664 14.8153C33.3769 15.5547 33.9165 16.5216 34.2826 17.716C34.668 18.882 34.8607 20.1049 34.8607 21.3847C34.8607 22.8635 34.6006 24.257 34.0803 25.5652C33.5793 26.845 32.8567 27.7977 31.9124 28.4233C33.0879 28.9352 34.0129 29.888 34.6873 31.2815C35.381 32.6465 35.7279 34.2676 35.7279 36.1445ZM33.0975 35.462C33.0975 34.5235 32.953 33.6561 32.664 32.8598C32.3942 32.0635 32.0184 31.4237 31.5367 30.9402C31.0742 30.4567 30.5346 30.215 29.918 30.215H22.5761V40.6237H29.7156C30.3515 40.6237 30.92 40.3819 31.421 39.8985C31.9413 39.415 32.346 38.7894 32.635 38.0215C32.9434 37.2252 33.0975 36.372 33.0975 35.462ZM22.5761 16.9909V27.1009H29.1086C29.7253 27.1009 30.2648 26.8734 30.7273 26.4184C31.2091 25.9634 31.5848 25.3519 31.8546 24.5841C32.1437 23.8162 32.2882 22.9773 32.2882 22.0672C32.2882 21.1003 32.1533 20.2471 31.8835 19.5077C31.633 18.7399 31.2765 18.1284 30.814 17.6734C30.3708 17.2184 29.8602 16.9909 29.2821 16.9909H22.5761ZM47.6916 44.1643C46.2464 44.1643 44.936 43.7378 43.7605 42.8846C42.5851 42.0314 41.5637 40.8796 40.6966 39.4292C39.8487 37.9504 39.1935 36.301 38.731 34.4809C38.2686 32.6323 38.0373 30.7411 38.0373 28.8073C38.0373 26.7881 38.2782 24.8685 38.76 23.0484C39.261 21.1998 39.9451 19.5646 40.8122 18.1426C41.6986 16.6922 42.7296 15.5547 43.9051 14.73C45.0805 13.8768 46.362 13.4502 47.7494 13.4502C49.1947 13.4502 50.5051 13.891 51.6805 14.7726C52.856 15.6542 53.8677 16.8344 54.7157 18.3133C55.5635 19.7921 56.2186 21.4416 56.6811 23.2617C57.1436 25.0818 57.3748 26.9445 57.3748 28.8499C57.3748 30.8691 57.134 32.803 56.6522 34.6515C56.1705 36.4716 55.4865 38.1068 54.6 39.5572C53.7328 40.9792 52.7115 42.1025 51.536 42.9272C50.3605 43.752 49.0791 44.1643 47.6916 44.1643ZM40.6677 28.8073C40.6677 30.343 40.8315 31.836 41.1591 33.2864C41.5059 34.7084 41.9877 35.9739 42.6043 37.083C43.221 38.1921 43.9629 39.0738 44.83 39.7279C45.6972 40.3819 46.6607 40.709 47.7205 40.709C48.8189 40.709 49.8017 40.3677 50.6689 39.6852C51.536 39.0027 52.2683 38.0926 52.8656 36.955C53.4824 35.8175 53.9448 34.5377 54.2531 33.1158C54.5807 31.6938 54.7445 30.2577 54.7445 28.8073C54.7445 27.2716 54.571 25.7927 54.2242 24.3708C53.8966 22.9488 53.4148 21.6833 52.7789 20.5742C52.1623 19.4366 51.4204 18.555 50.5532 17.9293C49.7054 17.2752 48.7611 16.9482 47.7205 16.9482C46.6221 16.9482 45.6394 17.2895 44.7722 17.972C43.9051 18.6261 43.1632 19.5219 42.5465 20.6595C41.9492 21.797 41.4867 23.0768 41.1591 24.4988C40.8315 25.8923 40.6677 27.3284 40.6677 28.8073ZM69.3141 44.1643C67.8688 44.1643 66.5584 43.7378 65.383 42.8846C64.2075 42.0314 63.1862 40.8796 62.319 39.4292C61.4711 37.9504 60.816 36.301 60.3535 34.4809C59.891 32.6323 59.6597 30.7411 59.6597 28.8073C59.6597 26.7881 59.9006 24.8685 60.3824 23.0484C60.8834 21.1998 61.5675 19.5646 62.4346 18.1426C63.3211 16.6922 64.352 15.5547 65.5275 14.73C66.703 13.8768 67.9844 13.4502 69.3719 13.4502C70.8171 13.4502 72.1275 13.891 73.303 14.7726C74.4784 15.6542 75.4901 16.8344 76.338 18.3133C77.1859 19.7921 77.8411 21.4416 78.3035 23.2617C78.766 25.0818 78.9973 26.9445 78.9973 28.8499C78.9973 30.8691 78.7564 32.803 78.2746 34.6515C77.7929 36.4716 77.1088 38.1068 76.2224 39.5572C75.3552 40.9792 74.3339 42.1025 73.1584 42.9272C71.983 43.752 70.7015 44.1643 69.3141 44.1643ZM62.2901 28.8073C62.2901 30.343 62.4539 31.836 62.7815 33.2864C63.1284 34.7084 63.6101 35.9739 64.2268 37.083C64.8434 38.1921 65.5853 39.0738 66.4525 39.7279C67.3196 40.3819 68.2831 40.709 69.343 40.709C70.4414 40.709 71.4241 40.3677 72.2913 39.6852C73.1584 39.0027 73.8907 38.0926 74.4881 36.955C75.1047 35.8175 75.5672 34.5377 75.8755 33.1158C76.2031 31.6938 76.3669 30.2577 76.3669 28.8073C76.3669 27.2716 76.1935 25.7927 75.8466 24.3708C75.519 22.9488 75.0373 21.6833 74.4014 20.5742C73.7847 19.4366 73.0428 18.555 72.1757 17.9293C71.3278 17.2752 70.3835 16.9482 69.343 16.9482C68.2446 16.9482 67.2618 17.2895 66.3946 17.972C65.5275 18.6261 64.7856 19.5219 64.1689 20.6595C63.5716 21.797 63.1091 23.0768 62.7815 24.4988C62.4539 25.8923 62.2901 27.3284 62.2901 28.8073ZM82.6117 43.951V13.7061H85.2132V30.4283L95.7927 13.6635H98.5965L90.3586 27.0156L99.059 43.951H96.1396L88.711 29.3192L85.2132 34.6941V43.951H82.6117Z" fill="white"/>
<path d="M34.7747 70.0763H27.693V96.9511H25.0915V70.0763H18.0098V66.6636H34.7747V70.0763ZM42.0263 66.6636H44.2231L52.6056 96.9511H49.8307L47.4027 88.0782H38.7889L36.3898 96.9511H33.6149L42.0263 66.6636ZM46.8246 85.0921L43.1247 71.1001L39.3092 85.0921H46.8246ZM55.3446 96.9511V66.6636H57.946V93.5385H69.3925V96.9511H55.3446ZM72.2247 96.9511V66.7062H74.8262V83.4284L85.4054 66.6636H88.2089L79.9713 80.0157L88.6714 96.9511H85.7523L78.3237 82.3193L74.8262 87.6942V96.9511H72.2247Z" fill="#F95C3B"/>
</svg>
