<svg width="275" height="57" viewBox="0 0 275 57" fill="none" xmlns="http://www.w3.org/2000/svg">
<path d="M195.66 17.7295H185.235V44.7885H181.405V17.7295H170.98V14.2935H195.66V17.7295ZM206.335 14.2935H209.568L221.908 44.7885H217.823L214.249 35.8547H201.569L198.037 44.7885H193.952L206.335 14.2935ZM213.398 32.8482L207.952 18.7603L202.335 32.8482H213.398ZM225.94 44.7885V14.2935H229.77V41.3524H246.62V44.7885H225.94ZM250.789 44.7885V14.3364H254.618V31.1731L270.192 14.2935H274.319L262.192 27.737L275 44.7885H270.702L259.767 30.0564L254.618 35.4681V44.7885H250.789Z" fill="#F95C3B"/>
<path d="M0 28.5C0 12.7598 12.4885 0 27.8941 0H175.029C175.1 0 175.169 0.00845258 175.237 0.0251988C176.163 0.253828 176.115 1.77615 175.203 2.05216C150.108 9.63996 150.028 47.2436 175.192 54.8797C176.137 55.1663 176.207 56.6986 175.256 56.9658C175.175 56.9887 175.092 57 175.009 57H27.8941C12.4885 57 0 44.2403 0 28.5Z" fill="#F95C3B"/>
<path d="M52.5962 36.3923C52.5962 37.9671 52.1991 39.3415 51.4048 40.5155C50.6106 41.6895 49.5326 42.6058 48.171 43.2644C46.8378 43.9229 45.3627 44.2522 43.7457 44.2522H29.4062V13.7572H44.4266C45.8449 13.7572 47.0647 14.1438 48.0859 14.9169C49.1355 15.6614 49.9297 16.6349 50.4687 17.8376C51.0361 19.0115 51.3197 20.2428 51.3197 21.5313C51.3197 23.0203 50.9368 24.4233 50.1709 25.7405C49.4333 27.029 48.3696 27.9882 46.9796 28.6182C48.71 29.1336 50.0716 30.0928 51.0644 31.4959C52.0856 32.8703 52.5962 34.5024 52.5962 36.3923ZM48.7242 35.705C48.7242 34.7601 48.5114 33.8868 48.0859 33.085C47.6888 32.2833 47.1356 31.639 46.4264 31.1523C45.7456 30.6655 44.9513 30.4221 44.0436 30.4221H33.2358V40.9021H43.7457C44.6819 40.9021 45.5187 40.6587 46.2562 40.1719C47.0221 39.6851 47.6178 39.0552 48.0433 38.2821C48.4972 37.4803 48.7242 36.6213 48.7242 35.705ZM33.2358 17.1074V27.2867H42.8522C43.7599 27.2867 44.5542 27.0576 45.235 26.5995C45.9442 26.1414 46.4973 25.5257 46.8945 24.7526C47.32 23.9795 47.5327 23.1348 47.5327 22.2185C47.5327 21.245 47.3342 20.386 46.937 19.6415C46.5683 18.8684 46.0435 18.2527 45.3627 17.7946C44.7102 17.3365 43.9585 17.1074 43.1075 17.1074H33.2358ZM70.2077 44.467C68.0802 44.467 66.1513 44.0375 64.4209 43.1785C62.6905 42.3194 61.187 41.1598 59.9105 39.6995C58.6624 38.2105 57.6979 36.5497 57.0171 34.7172C56.3363 32.856 55.9959 30.9518 55.9959 29.0047C55.9959 26.9717 56.3505 25.039 57.0597 23.2064C57.7972 21.3452 58.8042 19.6987 60.0807 18.2671C61.3856 16.8067 62.9032 15.6614 64.6336 14.831C66.364 13.972 68.2504 13.5425 70.2928 13.5425C72.4204 13.5425 74.3493 13.9863 76.0797 14.874C77.8101 15.7616 79.2994 16.9499 80.5476 18.4389C81.7957 19.9278 82.7601 21.5886 83.4409 23.4211C84.1217 25.2537 84.4621 27.1292 84.4621 29.0477C84.4621 31.0807 84.1076 33.0278 83.3984 34.889C82.6892 36.7215 81.6823 38.368 80.3774 39.8283C79.1008 41.26 77.5973 42.391 75.867 43.2214C74.1366 44.0518 72.2502 44.467 70.2077 44.467ZM59.868 29.0047C59.868 30.551 60.1091 32.0542 60.5913 33.5146C61.1019 34.9462 61.8111 36.2205 62.7189 37.3372C63.6266 38.4539 64.7187 39.3415 65.9952 40.0001C67.2718 40.6587 68.6901 40.988 70.2503 40.988C71.8672 40.988 73.3139 40.6444 74.5904 39.9572C75.867 39.27 76.9449 38.3537 77.8243 37.2083C78.7321 36.063 79.4128 34.7744 79.8667 33.3428C80.3489 31.9111 80.5901 30.4651 80.5901 29.0047C80.5901 27.4585 80.3348 25.9696 79.8241 24.5379C79.3419 23.1062 78.6327 21.832 77.6966 20.7152C76.7889 19.5699 75.6968 18.6822 74.4202 18.0523C73.1721 17.3937 71.7821 17.0644 70.2503 17.0644C68.6334 17.0644 67.1867 17.408 65.9101 18.0953C64.6336 18.7538 63.5415 19.6558 62.6338 20.8011C61.7544 21.9465 61.0736 23.235 60.5913 24.6667C60.1091 26.0698 59.868 27.5158 59.868 29.0047ZM102.038 44.467C99.91 44.467 97.9811 44.0375 96.2507 43.1785C94.5203 42.3194 93.0168 41.1598 91.7403 39.6995C90.4922 38.2105 89.5277 36.5497 88.8469 34.7172C88.1661 32.856 87.8257 30.9518 87.8257 29.0047C87.8257 26.9717 88.1803 25.039 88.8895 23.2064C89.627 21.3452 90.634 19.6987 91.9105 18.2671C93.2154 16.8067 94.7331 15.6614 96.4634 14.831C98.1938 13.972 100.08 13.5425 102.123 13.5425C104.25 13.5425 106.179 13.9863 107.91 14.874C109.64 15.7616 111.129 16.9499 112.377 18.4389C113.625 19.9278 114.59 21.5886 115.271 23.4211C115.952 25.2537 116.292 27.1292 116.292 29.0477C116.292 31.0807 115.937 33.0278 115.228 34.889C114.519 36.7215 113.512 38.368 112.207 39.8283C110.931 41.26 109.427 42.391 107.697 43.2214C105.966 44.0518 104.08 44.467 102.038 44.467ZM91.6978 29.0047C91.6978 30.551 91.9389 32.0542 92.4211 33.5146C92.9317 34.9462 93.6409 36.2205 94.5487 37.3372C95.4564 38.4539 96.5485 39.3415 97.8251 40.0001C99.1016 40.6587 100.52 40.988 102.08 40.988C103.697 40.988 105.144 40.6444 106.42 39.9572C107.697 39.27 108.775 38.3537 109.654 37.2083C110.562 36.063 111.243 34.7744 111.696 33.3428C112.179 31.9111 112.42 30.4651 112.42 29.0047C112.42 27.4585 112.165 25.9696 111.654 24.5379C111.172 23.1062 110.463 21.832 109.526 20.7152C108.619 19.5699 107.527 18.6822 106.25 18.0523C105.002 17.3937 103.612 17.0644 102.08 17.0644C100.463 17.0644 99.0165 17.408 97.7399 18.0953C96.4634 18.7538 95.3713 19.6558 94.4636 20.8011C93.5842 21.9465 92.9034 23.235 92.4211 24.6667C91.9389 26.0698 91.6978 27.5158 91.6978 29.0047ZM121.613 44.2522V13.8002H125.442V30.6369L141.016 13.7572H145.143L133.017 27.2008L145.824 44.2522H141.527L130.591 29.5201L125.442 34.9319V44.2522H121.613Z" fill="white"/>
</svg>
