<svg width="276" height="57" viewBox="0 0 276 57" fill="none" xmlns="http://www.w3.org/2000/svg">
<path d="M196.373 17.7295H185.91V44.7885H182.066V17.7295H171.604V14.2935H196.373V17.7295ZM207.086 14.2935H210.332L222.716 44.7885H218.617L215.029 35.8547H202.303L198.759 44.7885H194.659L207.086 14.2935ZM214.175 32.8482L208.709 18.7603L203.072 32.8482H214.175ZM226.763 44.7885V14.2935H230.606V41.3524H247.518V44.7885H226.763ZM251.702 44.7885V14.3364H255.546V31.1731L271.176 14.2935H275.318L263.147 27.737L276.001 44.7885H271.688L260.713 30.0564L255.546 35.4681V44.7885H251.702Z" fill="white"/>
<path d="M0 28.5C0 12.7598 12.5339 0 27.9956 0H175.666C175.737 0 175.806 0.00845258 175.874 0.0251988C176.803 0.253828 176.755 1.77615 175.84 2.05216C150.653 9.63996 150.573 47.2436 175.829 54.8797C176.777 55.1663 176.847 56.6986 175.894 56.9658C175.812 56.9887 175.729 57 175.645 57H27.9956C12.5339 57 0 44.2403 0 28.5Z" fill="#F95C3B"/>
<path d="M52.788 36.3923C52.788 37.9671 52.3894 39.3415 51.5922 40.5155C50.7951 41.6895 49.7132 42.6058 48.3467 43.2644C47.0086 43.9229 45.5281 44.2522 43.9053 44.2522H29.5137V13.7572H44.5886C46.0121 13.7572 47.2363 14.1438 48.2612 14.9169C49.3146 15.6614 50.1118 16.6349 50.6527 17.8376C51.2221 19.0115 51.5068 20.2428 51.5068 21.5313C51.5068 23.0203 51.1225 24.4233 50.3538 25.7405C49.6136 27.029 48.5459 27.9882 47.1509 28.6182C48.8876 29.1336 50.2542 30.0928 51.2506 31.4959C52.2755 32.8703 52.788 34.5024 52.788 36.3923ZM48.9018 35.705C48.9018 34.7601 48.6883 33.8868 48.2612 33.085C47.8627 32.2833 47.3075 31.639 46.5957 31.1523C45.9125 30.6655 45.1153 30.4221 44.2043 30.4221H33.3571V40.9021H43.9053C44.8448 40.9021 45.6847 40.6587 46.4249 40.1719C47.1936 39.6851 47.7915 39.0552 48.2185 38.2821C48.6741 37.4803 48.9018 36.6213 48.9018 35.705ZM33.3571 17.1074V27.2867H43.0085C43.9196 27.2867 44.7167 27.0576 45.4 26.5995C46.1118 26.1414 46.6669 25.5257 47.0655 24.7526C47.4925 23.9795 47.7061 23.1348 47.7061 22.2185C47.7061 21.245 47.5068 20.386 47.1082 19.6415C46.7381 18.8684 46.2114 18.2527 45.5281 17.7946C44.8733 17.3365 44.1188 17.1074 43.2647 17.1074H33.3571ZM70.4635 44.467C68.3283 44.467 66.3923 44.0375 64.6556 43.1785C62.919 42.3194 61.41 41.1598 60.1289 39.6995C58.8762 38.2105 57.9082 36.5497 57.2249 34.7172C56.5416 32.856 56.2 30.9518 56.2 29.0047C56.2 26.9717 56.5559 25.039 57.2676 23.2064C58.0079 21.3452 59.0185 19.6987 60.2997 18.2671C61.6093 16.8067 63.1325 15.6614 64.8692 14.831C66.6058 13.972 68.4991 13.5425 70.5489 13.5425C72.6842 13.5425 74.6202 13.9863 76.3568 14.874C78.0935 15.7616 79.5882 16.9499 80.841 18.4389C82.0936 19.9278 83.0616 21.5886 83.7448 23.4211C84.4281 25.2537 84.7698 27.1292 84.7698 29.0477C84.7698 31.0807 84.4139 33.0278 83.7021 34.889C82.9904 36.7215 81.9798 38.368 80.6702 39.8283C79.3889 41.26 77.88 42.391 76.1433 43.2214C74.4066 44.0518 72.5134 44.467 70.4635 44.467ZM60.0862 29.0047C60.0862 30.551 60.3282 32.0542 60.8122 33.5146C61.3246 34.9462 62.0364 36.2205 62.9474 37.3372C63.8585 38.4539 64.9546 39.3415 66.2357 40.0001C67.5169 40.6587 68.9404 40.988 70.5062 40.988C72.129 40.988 73.581 40.6444 74.8622 39.9572C76.1433 39.27 77.2252 38.3537 78.1078 37.2083C79.0189 36.063 79.7021 34.7744 80.1576 33.3428C80.6416 31.9111 80.8836 30.4651 80.8836 29.0047C80.8836 27.4585 80.6274 25.9696 80.1149 24.5379C79.6309 23.1062 78.9192 21.832 77.9796 20.7152C77.0686 19.5699 75.9725 18.6822 74.6913 18.0523C73.4387 17.3937 72.0436 17.0644 70.5062 17.0644C68.8834 17.0644 67.4315 17.408 66.1503 18.0953C64.8692 18.7538 63.7731 19.6558 62.862 20.8011C61.9794 21.9465 61.2962 23.235 60.8122 24.6667C60.3282 26.0698 60.0862 27.5158 60.0862 29.0047ZM102.409 44.467C100.274 44.467 98.3379 44.0375 96.6012 43.1785C94.8645 42.3194 93.3556 41.1598 92.0744 39.6995C90.8217 38.2105 89.8538 36.5497 89.1705 34.7172C88.4872 32.856 88.1455 30.9518 88.1455 29.0047C88.1455 26.9717 88.5014 25.039 89.2132 23.2064C89.9534 21.3452 90.9641 19.6987 92.2452 18.2671C93.5549 16.8067 95.078 15.6614 96.8147 14.831C98.5514 13.972 100.445 13.5425 102.494 13.5425C104.63 13.5425 106.566 13.9863 108.302 14.874C110.039 15.7616 111.534 16.9499 112.786 18.4389C114.039 19.9278 115.007 21.5886 115.69 23.4211C116.374 25.2537 116.715 27.1292 116.715 29.0477C116.715 31.0807 116.359 33.0278 115.648 34.889C114.936 36.7215 113.925 38.368 112.616 39.8283C111.334 41.26 109.826 42.391 108.089 43.2214C106.352 44.0518 104.459 44.467 102.409 44.467ZM92.0317 29.0047C92.0317 30.551 92.2737 32.0542 92.7577 33.5146C93.2702 34.9462 93.9819 36.2205 94.893 37.3372C95.804 38.4539 96.9001 39.3415 98.1813 40.0001C99.4624 40.6587 100.886 40.988 102.452 40.988C104.075 40.988 105.527 40.6444 106.808 39.9572C108.089 39.27 109.171 38.3537 110.053 37.2083C110.964 36.063 111.648 34.7744 112.103 33.3428C112.587 31.9111 112.829 30.4651 112.829 29.0047C112.829 27.4585 112.573 25.9696 112.06 24.5379C111.576 23.1062 110.865 21.832 109.925 20.7152C109.014 19.5699 107.918 18.6822 106.637 18.0523C105.384 17.3937 103.989 17.0644 102.452 17.0644C100.829 17.0644 99.377 17.408 98.0959 18.0953C96.8147 18.7538 95.7186 19.6558 94.8076 20.8011C93.925 21.9465 93.2417 23.235 92.7577 24.6667C92.2737 26.0698 92.0317 27.5158 92.0317 29.0047ZM122.055 44.2522V13.8002H125.899V30.6369L141.529 13.7572H145.672L133.501 27.2008L146.355 44.2522H142.042L131.067 29.5201L125.899 34.9319V44.2522H122.055Z" fill="white"/>
</svg>
