<svg width="282" height="200" viewBox="0 0 282 200" fill="none" xmlns="http://www.w3.org/2000/svg">
<g clip-path="url(#clip0_1388_566)">
<path d="M66.3984 56.3175H80.4975C87.5225 56.3175 92.1894 59.2256 92.1894 65.0417C92.1894 69.4284 89.3892 71.8929 86.6873 72.6815C89.5366 73.4701 93.5649 75.7374 93.5649 81.3564C93.5649 89.1934 85.9013 90.8199 80.8905 90.8199H66.3984V56.3175ZM89.3892 80.9128C89.3892 75.5403 84.4767 74.9488 81.1853 74.9488H70.525V86.8768H80.0554C84.3784 86.8768 89.3892 86.581 89.3892 80.9128ZM88.0137 65.6332C88.0137 61.5422 85.0171 60.2607 80.1536 60.2607H70.525V71.0057H81.2835C84.8697 71.0057 88.0137 69.5763 88.0137 65.6332ZM98.0552 73.5687C98.0552 64.6474 103.999 55.7261 116.035 55.7261C128.071 55.7261 134.015 64.6474 134.015 73.5687C134.015 82.4901 128.071 91.4114 116.035 91.4114C103.999 91.4114 98.0552 82.4901 98.0552 73.5687ZM129.839 73.5687C129.839 66.4711 125.369 59.6692 116.035 59.6692C106.701 59.6692 102.231 66.4711 102.231 73.5687C102.231 80.6664 106.701 87.4682 116.035 87.4682C125.369 87.4682 129.839 80.6664 129.839 73.5687ZM138.45 73.5687C138.45 64.6474 144.394 55.7261 156.43 55.7261C168.465 55.7261 174.41 64.6474 174.41 73.5687C174.41 82.4901 168.465 91.4114 156.43 91.4114C144.394 91.4114 138.45 82.4901 138.45 73.5687ZM170.234 73.5687C170.234 66.4711 165.764 59.6692 156.43 59.6692C147.096 59.6692 142.625 66.4711 142.625 73.5687C142.625 80.6664 147.096 87.4682 156.43 87.4682C165.764 87.4682 170.234 80.6664 170.234 73.5687ZM185.28 90.8199H181.153V56.3175H185.28V71.2521H193.091L203.456 56.3175H208.172L196.48 73.1251L209.204 90.8199H204.488L193.238 75.1953H185.28V90.8199Z" fill="white"/>
<path d="M4.81418 189.574H0.34375L15.3271 155.071H19.8957L34.8299 189.574H30.4086L26.8716 181.244H8.35123L4.81418 189.574ZM17.0465 160.641L9.97237 177.399H25.2504L18.1272 160.641C17.9307 160.197 17.7833 159.803 17.5868 159.31C17.3903 159.803 17.243 160.197 17.0465 160.641Z" fill="#F95C3B"/>
<path d="M4.81418 37.9145H0.34375L15.3271 3.41211H19.8957L34.8299 37.9145H30.4086L26.8716 29.5846H8.35123L4.81418 37.9145ZM17.0465 8.98178L9.97237 25.7401H25.2504L18.1272 8.98178C17.9307 8.53818 17.7833 8.14386 17.5868 7.65097C17.3903 8.14386 17.243 8.53818 17.0465 8.98178Z" fill="#F95C3B"/>
<path d="M250.916 37.9145H246.445L261.429 3.41211H265.997L280.932 37.9145H276.51L272.973 29.5846H254.453L250.916 37.9145ZM263.148 8.98178L256.074 25.7401H271.352L264.229 8.98178C264.032 8.53818 263.885 8.14386 263.688 7.65097C263.492 8.14386 263.345 8.53818 263.148 8.98178Z" fill="#F95C3B"/>
<path d="M250.916 189.574H246.445L261.429 155.071H265.997L280.932 189.574H276.51L272.973 181.244H254.453L250.916 189.574ZM263.148 160.641L256.074 177.399H271.352L264.229 160.641C264.032 160.197 263.885 159.803 263.688 159.31C263.492 159.803 263.345 160.197 263.148 160.641Z" fill="#F95C3B"/>
<path d="M281.645 38.27H0.353516V154.621H281.645V38.27Z" stroke="#F95C3B" stroke-width="1.5"/>
<path d="M282 3.08887H0V189.189H282V3.08887Z" stroke="#F95C3B" stroke-width="1.5"/>
<path d="M246.691 189.218V3.19922L34.8371 3.19922V189.218H246.691Z" stroke="#F95C3B" stroke-width="1.5"/>
<path d="M36 72.181C36 53.3032 50.917 38 69.3184 38H245.066C245.15 38 245.232 38.0101 245.314 38.0302C246.419 38.3044 246.362 40.1302 245.273 40.4612C215.298 49.5615 215.202 94.6608 245.26 103.819C246.389 104.163 246.472 106 245.337 106.321C245.24 106.348 245.141 106.362 245.041 106.362H69.3184C50.917 106.362 36 91.0588 36 72.181Z" fill="#F95C3B"/>
<path d="M98.8226 81.6467C98.8226 83.5355 98.3482 85.1838 97.3995 86.5918C96.4507 87.9998 95.1632 89.0988 93.5368 89.8886C91.9443 90.6785 90.1824 91.0734 88.251 91.0734H71.123V54.4997H89.0642C90.7584 54.4997 92.2153 54.9634 93.4351 55.8906C94.6888 56.7835 95.6375 57.9511 96.2813 59.3934C96.959 60.8014 97.2978 62.2781 97.2978 63.8235C97.2978 65.6092 96.8404 67.2919 95.9256 68.8717C95.0446 70.417 93.774 71.5675 92.1137 72.323C94.1806 72.9411 95.807 74.0916 96.9929 75.7743C98.2127 77.4227 98.8226 79.3801 98.8226 81.6467ZM94.1975 80.8225C94.1975 79.6892 93.9434 78.6418 93.4351 77.6802C92.9608 76.7187 92.3001 75.946 91.453 75.3622C90.6398 74.7784 89.691 74.4865 88.6068 74.4865H75.6973V87.0555H88.251C89.3692 87.0555 90.3687 86.7635 91.2497 86.1797C92.1645 85.5959 92.8761 84.8404 93.3843 83.9132C93.9264 82.9516 94.1975 81.9214 94.1975 80.8225ZM75.6973 58.5177V70.7261H87.1837C88.268 70.7261 89.2167 70.4514 90.0299 69.9019C90.877 69.3524 91.5377 68.6141 92.012 67.6869C92.5203 66.7597 92.7744 65.7466 92.7744 64.6476C92.7744 63.48 92.5372 62.4498 92.0629 61.5569C91.6224 60.6297 90.9956 59.8914 90.1824 59.3419C89.403 58.7924 88.5051 58.5177 87.4886 58.5177H75.6973ZM119.859 91.331C117.318 91.331 115.014 90.8158 112.947 89.7856C110.88 88.7554 109.084 87.3645 107.559 85.6131C106.068 83.8274 104.916 81.8356 104.103 79.6377C103.29 77.4055 102.883 75.1218 102.883 72.7866C102.883 70.3483 103.307 68.0303 104.154 65.8324C105.035 63.6002 106.238 61.6256 107.763 59.9085C109.321 58.1571 111.134 56.7835 113.201 55.7876C115.268 54.7573 117.521 54.2422 119.96 54.2422C122.502 54.2422 124.806 54.7745 126.873 55.8391C128.94 56.9037 130.718 58.3288 132.209 60.1146C133.7 61.9003 134.852 63.8921 135.665 66.09C136.479 68.2878 136.885 70.5372 136.885 72.8381C136.885 75.2763 136.462 77.6116 135.615 79.8437C134.767 82.0416 133.565 84.0162 132.006 85.7676C130.481 87.4847 128.685 88.8412 126.619 89.8371C124.552 90.833 122.298 91.331 119.859 91.331ZM107.508 72.7866C107.508 74.641 107.796 76.4439 108.372 78.1954C108.982 79.9124 109.829 81.4406 110.914 82.7799C111.998 84.1193 113.302 85.1838 114.827 85.9737C116.352 86.7635 118.046 87.1585 119.91 87.1585C121.841 87.1585 123.569 86.7464 125.094 85.9222C126.619 85.098 127.906 83.9991 128.956 82.6254C130.041 81.2517 130.854 79.7064 131.396 77.9893C131.972 76.2722 132.26 74.538 132.26 72.7866C132.26 70.9321 131.955 69.1464 131.345 67.4293C130.769 65.7122 129.922 64.184 128.804 62.8447C127.72 61.4711 126.415 60.4065 124.89 59.651C123.4 58.8611 121.739 58.4662 119.91 58.4662C117.978 58.4662 116.25 58.8783 114.726 59.7025C113.201 60.4923 111.896 61.5741 110.812 62.9477C109.762 64.3214 108.948 65.8668 108.372 67.5838C107.796 69.2666 107.508 71.0008 107.508 72.7866ZM157.878 91.331C155.337 91.331 153.033 90.8158 150.966 89.7856C148.899 88.7554 147.103 87.3645 145.579 85.6131C144.088 83.8274 142.936 81.8356 142.123 79.6377C141.309 77.4055 140.903 75.1218 140.903 72.7866C140.903 70.3483 141.326 68.0303 142.173 65.8324C143.054 63.6002 144.257 61.6256 145.782 59.9085C147.341 58.1571 149.153 56.7835 151.22 55.7876C153.287 54.7573 155.54 54.2422 157.98 54.2422C160.521 54.2422 162.825 54.7745 164.892 55.8391C166.959 56.9037 168.738 58.3288 170.229 60.1146C171.72 61.9003 172.872 63.8921 173.685 66.09C174.498 68.2878 174.905 70.5372 174.905 72.8381C174.905 75.2763 174.481 77.6116 173.634 79.8437C172.787 82.0416 171.584 84.0162 170.025 85.7676C168.501 87.4847 166.705 88.8412 164.638 89.8371C162.571 90.833 160.318 91.331 157.878 91.331ZM145.528 72.7866C145.528 74.641 145.816 76.4439 146.392 78.1954C147.002 79.9124 147.849 81.4406 148.933 82.7799C150.017 84.1193 151.322 85.1838 152.847 85.9737C154.371 86.7635 156.065 87.1585 157.929 87.1585C159.86 87.1585 161.588 86.7464 163.113 85.9222C164.638 85.098 165.925 83.9991 166.976 82.6254C168.06 81.2517 168.873 79.7064 169.415 77.9893C169.991 76.2722 170.279 74.538 170.279 72.7866C170.279 70.9321 169.975 69.1464 169.365 67.4293C168.789 65.7122 167.942 64.184 166.823 62.8447C165.739 61.4711 164.435 60.4065 162.91 59.651C161.419 58.8611 159.759 58.4662 157.929 58.4662C155.998 58.4662 154.27 58.8783 152.745 59.7025C151.22 60.4923 149.916 61.5741 148.831 62.9477C147.781 64.3214 146.968 65.8668 146.392 67.5838C145.816 69.2666 145.528 71.0008 145.528 72.7866ZM181.26 91.0734V54.5513H185.834V74.744L204.437 54.4997H209.367L194.881 70.6231L210.18 91.0734H205.046L191.984 73.4047L185.834 79.8953V91.0734H181.26Z" fill="white"/>
<path d="M97.1444 122.62H84.6923V155.073H80.1181V122.62H67.666V118.5H97.1444V122.62ZM109.895 118.5H113.758L128.497 155.073H123.618L119.349 144.359H104.203L99.9843 155.073H95.1051L109.895 118.5ZM118.332 140.753L111.826 123.857L105.118 140.753H118.332ZM133.313 155.073V118.5H137.887V150.952H158.014V155.073H133.313ZM162.994 155.073V118.551H167.568V138.744L186.17 118.5H191.099L176.615 134.623L191.913 155.073H186.78L173.718 137.404L167.568 143.895V155.073H162.994Z" fill="#F95C3B"/>
</g>
<defs>
<clipPath id="clip0_1388_566">
<rect width="282" height="200" fill="white"/>
</clipPath>
</defs>
</svg>
