<svg width="177" height="106" viewBox="0 0 177 106" fill="none" xmlns="http://www.w3.org/2000/svg">
<path d="M52.699 36.1445C52.699 37.7087 52.3011 39.0738 51.5052 40.2398C50.7094 41.4058 49.6293 42.3158 48.2649 42.9699C46.929 43.624 45.451 43.951 43.8309 43.951H29.4629V13.6635H44.5131C45.9342 13.6635 47.1564 14.0474 48.1797 14.8153C49.2313 15.5547 50.0272 16.5216 50.5672 17.716C51.1357 18.882 51.4199 20.1049 51.4199 21.3847C51.4199 22.8635 51.0362 24.257 50.2688 25.5652C49.5298 26.845 48.4639 27.7977 47.0712 28.4233C48.805 28.9352 50.1693 29.888 51.1641 31.2815C52.1874 32.6465 52.699 34.2676 52.699 36.1445ZM48.8192 35.462C48.8192 34.5235 48.606 33.6561 48.1797 32.8598C47.7817 32.0635 47.2275 31.4237 46.5169 30.9402C45.8347 30.4567 45.0389 30.215 44.1293 30.215H33.3V40.6237H43.8309C44.7689 40.6237 45.6074 40.3819 46.3464 39.8985C47.1138 39.415 47.7107 38.7894 48.137 38.0215C48.5918 37.2252 48.8192 36.372 48.8192 35.462ZM33.3 16.9909V27.1009H42.9356C43.8451 27.1009 44.641 26.8734 45.3231 26.4184C46.0337 25.9634 46.588 25.3519 46.9859 24.5841C47.4122 23.8162 47.6254 22.9773 47.6254 22.0672C47.6254 21.1003 47.4265 20.2471 47.0285 19.5077C46.659 18.7399 46.1332 18.1284 45.451 17.6734C44.7973 17.2184 44.0441 16.9909 43.1914 16.9909H33.3ZM70.3455 44.1643C68.2137 44.1643 66.281 43.7378 64.5471 42.8846C62.8133 42.0314 61.3069 40.8796 60.0278 39.4292C58.7772 37.9504 57.8108 36.301 57.1286 34.4809C56.4465 32.6323 56.1054 30.7411 56.1054 28.8073C56.1054 26.7881 56.4607 24.8685 57.1713 23.0484C57.9103 21.1998 58.9193 19.5646 60.1984 18.1426C61.5058 16.6922 63.0265 15.5547 64.7603 14.73C66.4941 13.8768 68.3843 13.4502 70.4308 13.4502C72.5625 13.4502 74.4953 13.891 76.2291 14.7726C77.963 15.6542 79.4552 16.8344 80.7059 18.3133C81.9564 19.7921 82.9228 21.4416 83.605 23.2617C84.2872 25.0818 84.6282 26.9445 84.6282 28.8499C84.6282 30.8691 84.2729 32.803 83.5624 34.6515C82.8518 36.4716 81.8429 38.1068 80.5354 39.5572C79.2562 40.9792 77.7498 42.1025 76.016 42.9272C74.2821 43.752 72.392 44.1643 70.3455 44.1643ZM59.9852 28.8073C59.9852 30.343 60.2268 31.836 60.71 33.2864C61.2216 34.7084 61.9322 35.9739 62.8417 37.083C63.7513 38.1921 64.8456 39.0738 66.1246 39.7279C67.4037 40.3819 68.8249 40.709 70.3881 40.709C72.0083 40.709 73.4579 40.3677 74.7369 39.6852C76.016 39.0027 77.096 38.0926 77.9772 36.955C78.8868 35.8175 79.5689 34.5377 80.0237 33.1158C80.5069 31.6938 80.7484 30.2577 80.7484 28.8073C80.7484 27.2716 80.4926 25.7927 79.981 24.3708C79.4978 22.9488 78.7872 21.6833 77.8493 20.5742C76.9397 19.4366 75.8454 18.555 74.5664 17.9293C73.3157 17.2752 71.923 16.9482 70.3881 16.9482C68.768 16.9482 67.3184 17.2895 66.0394 17.972C64.7603 18.6261 63.666 19.5219 62.7565 20.6595C61.8753 21.797 61.1932 23.0768 60.71 24.4988C60.2268 25.8923 59.9852 27.3284 59.9852 28.8073ZM102.239 44.1643C100.107 44.1643 98.174 43.7378 96.4402 42.8846C94.7064 42.0314 93.1999 40.8796 91.9209 39.4292C90.6703 37.9504 89.7039 36.301 89.0217 34.4809C88.3396 32.6323 87.9985 30.7411 87.9985 28.8073C87.9985 26.7881 88.3538 24.8685 89.0644 23.0484C89.8034 21.1998 90.8124 19.5646 92.0914 18.1426C93.3989 16.6922 94.9196 15.5547 96.6534 14.73C98.3872 13.8768 100.277 13.4502 102.324 13.4502C104.456 13.4502 106.388 13.891 108.122 14.7726C109.856 15.6542 111.348 16.8344 112.599 18.3133C113.85 19.7921 114.816 21.4416 115.498 23.2617C116.18 25.0818 116.521 26.9445 116.521 28.8499C116.521 30.8691 116.166 32.803 115.455 34.6515C114.745 36.4716 113.736 38.1068 112.428 39.5572C111.149 40.9792 109.643 42.1025 107.909 42.9272C106.175 43.752 104.285 44.1643 102.239 44.1643ZM91.8783 28.8073C91.8783 30.343 92.1199 31.836 92.6031 33.2864C93.1147 34.7084 93.8253 35.9739 94.7348 37.083C95.6444 38.1921 96.7387 39.0738 98.0177 39.7279C99.2968 40.3819 100.718 40.709 102.281 40.709C103.901 40.709 105.351 40.3677 106.63 39.6852C107.909 39.0027 108.989 38.0926 109.87 36.955C110.78 35.8175 111.462 34.5377 111.917 33.1158C112.4 31.6938 112.642 30.2577 112.642 28.8073C112.642 27.2716 112.386 25.7927 111.874 24.3708C111.391 22.9488 110.68 21.6833 109.742 20.5742C108.833 19.4366 107.738 18.555 106.459 17.9293C105.209 17.2752 103.816 16.9482 102.281 16.9482C100.661 16.9482 99.2115 17.2895 97.9324 17.972C96.6534 18.6261 95.5591 19.5219 94.6495 20.6595C93.7684 21.797 93.0863 23.0768 92.6031 24.4988C92.1199 25.8923 91.8783 27.3284 91.8783 28.8073ZM121.853 43.951V13.7061H125.69V30.4283L141.295 13.6635H145.43L133.279 27.0156L146.112 43.951H141.806L130.849 29.3192L125.69 34.6941V43.951H121.853Z" fill="black"/>
<path d="M51.2928 60.6119H40.8472V87.4868H37.01V60.6119H26.5645V57.1992H51.2928V60.6119ZM61.9889 57.1992H65.2291L77.5933 87.4868H73.5003L69.919 78.6138H57.2137L53.675 87.4868H49.5821L61.9889 57.1992ZM69.0663 75.6277L63.609 61.6357L57.9812 75.6277H69.0663ZM81.6333 87.4868V57.1992H85.4704V84.0741H102.354V87.4868H81.6333ZM106.532 87.4868V57.2419H110.369V73.964L125.973 57.1992H130.108L117.958 70.5513L130.79 87.4868H126.485L115.527 72.8549L110.369 78.2299V87.4868H106.532Z" fill="black"/>
</svg>
